<?xml version="1.0" encoding="UTF-8" standalone="no"?>
<!-- Created with Inkscape (http://www.inkscape.org/) -->

<svg
   xmlns:dc="http://purl.org/dc/elements/1.1/"
   xmlns:cc="http://creativecommons.org/ns#"
   xmlns:rdf="http://www.w3.org/1999/02/22-rdf-syntax-ns#"
   xmlns:svg="http://www.w3.org/2000/svg"
   xmlns="http://www.w3.org/2000/svg"
   xmlns:sodipodi="http://sodipodi.sourceforge.net/DTD/sodipodi-0.dtd"
   xmlns:inkscape="http://www.inkscape.org/namespaces/inkscape"
   width="103.659"
   height="20.731001"
   viewBox="0 0 103.659 20.731001"
   id="svg2"
   version="1.1"
   inkscape:version="0.91 r13725"
   sodipodi:docname="S-Pankki.svg">
  <defs
     id="defs4">
    <clipPath
       clipPathUnits="userSpaceOnUse"
       id="clipPath13708">
      <path
         d="m 853.896,158.886 82.927,0 0,16.585 -82.927,0 0,-16.585 z"
         id="path13710"
         inkscape:connector-curvature="0" />
    </clipPath>
  </defs>
  <sodipodi:namedview
     id="base"
     pagecolor="#ffffff"
     bordercolor="#666666"
     borderopacity="1.0"
     inkscape:pageopacity="0.0"
     inkscape:pageshadow="2"
     inkscape:zoom="7.1693998"
     inkscape:cx="49.979058"
     inkscape:cy="42.626957"
     inkscape:document-units="px"
     inkscape:current-layer="layer1"
     showgrid="false"
     units="px"
     inkscape:window-width="1920"
     inkscape:window-height="1137"
     inkscape:window-x="-4"
     inkscape:window-y="-4"
     inkscape:window-maximized="1" />
  <metadata
     id="metadata7">
    <rdf:RDF>
      <cc:Work
         rdf:about="">
        <dc:format>image/svg+xml</dc:format>
        <dc:type
           rdf:resource="http://purl.org/dc/dcmitype/StillImage" />
        <dc:title></dc:title>
      </cc:Work>
    </rdf:RDF>
  </metadata>
  <g
     inkscape:label="Taso 1"
     inkscape:groupmode="layer"
     id="layer1"
     transform="translate(0,-1031.6312)">
    <g
       id="g13704"
       transform="matrix(1.25,0,0,-1.25,-1067.37,1250.9697)">
      <g
         id="g13706"
         clip-path="url(#clipPath13708)">
        <g
           id="g13712"
           transform="translate(933.1194,173.2685)">
          <path
             d="M 0,0 C 0,0.826 0.668,1.494 1.489,1.494 2.314,1.494 2.981,0.826 2.981,0 2.981,-0.824 2.314,-1.49 1.489,-1.49 0.668,-1.49 0,-0.824 0,0 m -37.154,-2.946 0,-0.276 c 1.088,-0.602 0.939,-1.288 0.939,-2.396 l 0,-5.725 c 0,-1.107 0.149,-1.778 -0.939,-2.379 l 0,-0.291 4.129,0 0,0.293 c -1.089,0.601 -0.939,1.244 -0.939,2.353 l 0,3.848 c 0,1.743 1.024,3.21 2.853,3.21 1.998,0 2.759,-1.206 2.759,-3.382 l 0,-3.676 c 0,-1.083 0.148,-1.754 -0.94,-2.355 l 0,-0.291 4.128,0 0,0.291 c -1.087,0.601 -0.939,1.246 -0.939,2.355 l 0,4.505 c 0,3.643 -2.62,4.227 -4.376,4.227 -1.44,0 -2.811,-0.716 -3.485,-1.851 l 0,1.851 -0.285,0 c -0.52,-0.289 -0.903,-0.311 -1.446,-0.311 l -1.459,0 z m -31.889,4.514 c -1.179,0.357 -2.431,0.523 -3.657,0.523 -3.136,0 -6.16,-1.144 -6.16,-4.153 0,-5.123 8.304,-4.547 8.304,-8.119 0,-1.402 -1.774,-2.214 -3.434,-2.214 -1.914,0 -4.001,0.769 -5.234,1.927 l 0.635,-3.199 c 1.398,-0.5 2.895,-0.716 4.393,-0.716 4.092,0 6.575,1.902 6.575,4.649 0,4.418 -8.258,4.664 -8.258,7.935 0,1.397 1.625,2.016 3.023,2.016 1.373,0 2.944,-0.545 3.813,-1.341 l 0,2.692 z m 3.201,-7.081 c 0.206,0.229 0.533,0.412 0.798,0.412 l 5.111,0 c 0.27,0 0.258,-0.183 0.053,-0.412 l -0.911,-1.006 c -0.207,-0.226 -0.543,-0.411 -0.799,-0.411 l -5.113,0 c -0.251,0 -0.257,0.185 -0.05,0.411 l 0.911,1.006 z m 41.824,7.331 0,-0.28 c 1.064,-0.6 0.916,-1.283 0.916,-2.391 l 0,-10.49 c 0,-1.107 0.148,-1.778 -0.916,-2.379 l 0,-0.291 4.13,0 0,0.291 c -1.114,0.601 -0.965,1.272 -0.965,2.379 l 0,13.546 -0.288,0 c -0.321,-0.361 -0.701,-0.385 -1.244,-0.385 l -1.633,0 z m 7.296,-14.484 c 0.469,-0.652 1.087,-1.347 2.521,-1.347 l 1.928,0 c -1.113,0.672 -1.855,1.708 -2.62,2.694 l -3.018,3.728 4.129,4.645 -3.757,0 0,-0.279 c 0.216,-0.049 0.469,-0.153 0.469,-0.493 0,-0.602 -0.89,-1.515 -1.26,-1.922 l -2.051,-2.191 3.659,-4.835 z m 16.297,9.72 0,-0.277 c 1.088,-0.603 0.939,-1.263 0.939,-2.37 l 0,-5.75 c 0,-1.107 0.149,-1.776 -0.939,-2.377 l 0,-0.293 4.129,0 0,0.291 c -1.088,0.601 -0.939,1.272 -0.939,2.379 l 0,8.78 -0.288,0 C 2.058,-2.924 1.651,-2.946 1.082,-2.946 l -1.507,0 z m -58.511,4.764 0,-0.28 c 1.235,-0.481 1.087,-2.032 1.087,-3.113 l 0,-9.069 c 0,-1.086 0.148,-2.642 -1.111,-3.076 l 0,-0.293 4.92,0 0,0.293 c -1.313,0.721 -1.288,1.462 -1.288,2.81 l 0,10.928 c 1.539,-0.006 0.121,0 1.737,-0.006 2.063,-0.009 3.53,-0.868 3.53,-2.986 0,-2.112 -1.727,-3.361 -4.449,-3.361 l 0,-0.27 c 0.436,-0.19 1.223,-0.282 1.842,-0.294 2.847,-0.053 5.338,1.739 5.338,4.507 0,2.694 -2.385,4.21 -5.599,4.21 l -6.007,0 z m -0.813,-8.089 0.452,0 c 0.262,0 0.257,-0.187 0.049,-0.415 l -0.911,-1.004 c -0.205,-0.23 -0.535,-0.416 -0.797,-0.416 l -5.113,0 c -0.257,0 -0.257,0.186 -0.051,0.416 l 0.142,0.155 4.664,0 c 0.263,0 0.59,0.183 0.797,0.412 l 0.768,0.852 z m 47.473,8.089 0,-0.28 c 1.063,-0.6 0.915,-1.283 0.915,-2.391 l 0,-10.49 c 0,-1.107 0.148,-1.778 -0.915,-2.379 l 0,-0.291 4.13,0 0,0.291 c -1.114,0.601 -0.966,1.272 -0.966,2.379 l 0,13.546 -0.289,0 C -9.722,1.842 -10.099,1.818 -10.645,1.818 l -1.631,0 z m 7.274,-14.484 c 0.469,-0.652 1.088,-1.347 2.521,-1.347 l 1.928,0 c -1.112,0.672 -1.854,1.708 -2.62,2.694 l -3.015,3.728 4.127,4.645 -3.757,0 0,-0.279 c 0.215,-0.049 0.47,-0.153 0.47,-0.493 0,-0.602 -0.891,-1.515 -1.262,-1.922 l -2.05,-2.191 3.658,-4.835 z m -32.144,0.059 c -2.118,0 -2.36,0.5 -2.36,2.667 l 0.04,3.458 c 0,3.192 -1.781,3.849 -4.441,3.849 -0.439,0 -2.278,0.024 -2.491,-0.758 -0.3,-1.1 -0.781,-1.802 -0.781,-1.802 0.91,0.533 1.936,0.868 3.198,0.868 0.915,0 2.26,-0.281 2.26,-1.3 0,-2.484 -7.309,-1.256 -7.309,-5.395 0,-2.129 1.717,-3.307 4.152,-3.307 0.419,0 0.493,-0.01 1.163,0.003 l 1.4,1.711 c -0.712,-0.009 -0.876,0 -1.47,0 -1.696,0 -2.744,0.392 -2.744,1.722 0,1.113 1.386,1.641 2.548,1.916 0.917,0.213 1.704,0.382 2.265,0.817 l 0,-3.666 c 0,-1.924 1.494,-2.457 3.2,-2.457 l 1.37,1.674 z"
             style="fill:#669e24;fill-opacity:1;fill-rule:nonzero;stroke:none"
             id="path13714"
             inkscape:connector-curvature="0" />
        </g>
      </g>
    </g>
  </g>
</svg>
